<svg xmlns="http://www.w3.org/2000/svg" height="24" viewBox="0 -960 960 960" width="24"><path fill="#f3f4f6" d="M357.5-147.271H203.231q-23.257 0-39.609-16.351-16.351-16.352-16.351-39.609V-357.5q39.768-5.808 67.864-34.107 28.096-28.298 28.096-68.595 0-40.298-28-68.798-27.999-28.499-67.96-34.307v-154.27q0-23.257 16.351-39.608 16.352-16.352 39.609-16.352h158.384q6.501-36.846 33.754-60.653 27.253-23.808 64.653-23.808 37.401 0 65.035 23.808 27.635 23.807 34.135 60.653h158.385q23.257 0 39.608 16.352 16.352 16.351 16.352 39.608v158.385q36.846 6.5 60.653 34.135 23.808 27.634 23.808 65.035 0 37.4-23.808 64.653-23.807 27.253-60.653 33.754v158.384q0 23.257-16.352 39.609-16.351 16.351-39.608 16.351h-154.27q-6-41.768-35.182-68.864-29.183-27.096-68.125-27.096-38.192 0-67.346 27.096-29.153 27.096-35.154 68.864Zm-154.269-55.96h111.386q21.154-49.999 61.961-72.979 40.807-22.981 83.422-22.981 42.615 0 83.826 22.981 41.211 22.98 62.528 72.979h111.223v-207.998h43.575q20.97-2.308 32.947-16.862 11.977-14.555 11.977-31.909t-11.977-31.909q-11.977-14.554-32.947-16.862h-43.575v-208.806H508.771v-42.767q-2.308-20.97-16.862-32.947-14.555-11.977-31.909-11.977t-31.909 11.977q-14.554 11.977-16.862 32.947v42.767H203.231v111.765q43.615 19.352 69.787 58.798 26.173 39.447 26.173 87.021 0 46.992-26.327 86.165-26.326 39.173-69.633 58.134v112.463ZM460-460Z"/></svg>